<svg xmlns="http://www.w3.org/2000/svg" xmlns:xlink="http://www.w3.org/1999/xlink" width="500" zoomAndPan="magnify" viewBox="0 0 375 374.999991" height="500" preserveAspectRatio="xMidYMid meet" version="1.0"><defs><clipPath id="2976ce7bd7"><path d="M 112.5 153.183594 L 262.5 153.183594 L 262.5 244.332031 L 112.5 244.332031 Z M 112.5 153.183594 " clip-rule="nonzero"/></clipPath><clipPath id="be62803d4d"><path d="M 123 130.332031 L 248 130.332031 L 248 183 L 123 183 Z M 123 130.332031 " clip-rule="nonzero"/></clipPath></defs><g clip-path="url(#2976ce7bd7)"><path fill="#d88480" d="M 112.5 212.855469 C 112.5 212.855469 118.761719 191.558594 130.195312 193.90625 C 130.195312 193.90625 128.316406 202.675781 121.347656 209.410156 C 121.347656 209.410156 130.351562 201.582031 134.890625 196.335938 C 139.433594 191.089844 134.890625 197.039062 134.890625 197.039062 C 134.890625 197.039062 126.59375 208.941406 122.207031 211.757812 C 122.207031 211.757812 136.769531 202.050781 140.683594 197.351562 C 140.683594 197.351562 138.335938 205.964844 128.472656 213.636719 C 128.472656 213.636719 142.09375 204.554688 144.914062 199.703125 C 144.914062 199.703125 134.578125 219.429688 136.769531 226.789062 C 136.609375 226.253906 137.210938 224.984375 137.363281 224.492188 C 138.042969 222.265625 138.960938 220.109375 140 218.027344 C 142.4375 213.140625 145.628906 208.601562 149.308594 204.570312 C 148.929688 204.984375 149.019531 207.28125 148.933594 207.910156 C 148.722656 209.417969 148.460938 210.921875 148.144531 212.410156 C 147.363281 216.0625 146.273438 219.6875 144.597656 223.03125 C 144.597656 223.03125 152.273438 212.539062 153.523438 207.21875 C 153.523438 207.21875 158.691406 215.203125 148.828125 237.125 C 148.828125 237.125 157.753906 222.71875 158.535156 210.820312 C 158.535156 210.820312 156.34375 229.296875 158.535156 236.027344 C 158.535156 236.027344 158.691406 220.347656 162.136719 215.425781 C 162.136719 215.425781 160.882812 234.304688 167.460938 239.628906 C 167.460938 239.628906 162.761719 228.980469 166.675781 213.949219 C 166.675781 213.949219 166.675781 232.425781 175.757812 240.882812 C 175.757812 240.882812 168.554688 230.859375 170.75 215.515625 C 170.75 215.515625 170.277344 235.402344 189.070312 244.640625 C 189.070312 244.640625 177.636719 237.28125 176.699219 216.140625 C 176.699219 216.140625 177.636719 228.042969 191.730469 238.378906 C 191.730469 238.378906 181.238281 227.886719 181.238281 215.203125 C 181.238281 215.203125 184.214844 230.546875 197.367188 236.8125 C 197.367188 236.8125 185.625 229.765625 183.273438 210.503906 C 183.273438 210.503906 187.347656 231.019531 206.449219 237.90625 C 206.449219 237.90625 193.765625 232.582031 187.972656 213.636719 C 187.972656 213.636719 200.03125 246.207031 223.046875 231.957031 C 223.046875 231.957031 201.28125 244.484375 189.695312 210.035156 C 189.695312 210.035156 199.714844 227.886719 211.617188 230.859375 C 211.617188 230.859375 198.152344 223.816406 194.550781 211.601562 C 194.550781 211.601562 212.242188 234.933594 221.949219 228.199219 C 221.949219 228.199219 212.871094 234.617188 197.367188 209.253906 C 197.367188 209.253906 210.207031 230.546875 228.996094 223.816406 C 228.996094 223.816406 213.183594 228.824219 197.996094 205.964844 C 197.996094 205.964844 213.027344 224.910156 230.40625 219.898438 C 230.40625 219.898438 214.121094 222.25 201.753906 206.277344 C 201.753906 206.277344 233.226562 229.296875 250.449219 211.132812 C 250.449219 211.132812 235.886719 227.417969 203.632812 202.988281 C 203.632812 202.988281 235.261719 227.574219 253.425781 204.398438 C 253.425781 204.398438 238.863281 222.09375 208.484375 202.832031 C 208.484375 202.832031 231.972656 215.515625 243.871094 205.496094 C 243.871094 205.496094 229.46875 213.324219 213.027344 201.421875 C 213.027344 201.421875 232.285156 210.191406 240.898438 202.519531 C 240.898438 202.519531 231.660156 208 218.351562 199.703125 C 218.351562 199.703125 234.164062 205.023438 239.488281 200.484375 C 239.488281 200.484375 232.441406 203.929688 223.203125 198.605469 C 223.203125 198.605469 249.507812 201.265625 259.0625 192.34375 C 259.0625 192.34375 249.351562 199.859375 226.023438 194.691406 C 226.023438 194.691406 252.171875 197.351562 262.503906 187.957031 C 258.71875 191.402344 250.875 192.082031 246.160156 191.855469 C 237.832031 191.449219 230.007812 187.632812 223.667969 182.378906 C 222.648438 181.53125 221.628906 180.605469 221.109375 179.386719 C 220.203125 177.246094 221.929688 174.859375 222.917969 173.019531 C 224.257812 170.523438 225.828125 168.15625 227.527344 165.894531 C 230.941406 161.355469 234.890625 157.25 238.863281 153.195312 C 233.679688 156.820312 228.792969 161.039062 224.398438 165.578125 C 221.035156 169.054688 218.042969 172.710938 216.003906 177.082031 C 213.816406 181.769531 210.996094 186.265625 207.179688 189.804688 C 195.671875 200.476562 179.382812 203.339844 164.253906 200.824219 C 155.089844 199.300781 146.28125 196.015625 138.003906 191.859375 C 138.003906 191.859375 116.59375 178.179688 112.5 212.855469 " fill-opacity="1" fill-rule="nonzero"/></g><g clip-path="url(#be62803d4d)"><path fill="#d88480" d="M 123.675781 182.226562 C 124.128906 181.691406 124.601562 181.167969 125.085938 180.652344 C 125.570312 180.140625 126.058594 179.628906 126.558594 179.132812 C 127.550781 178.132812 128.574219 177.160156 129.617188 176.203125 C 131.703125 174.300781 133.867188 172.476562 136.097656 170.738281 C 137.210938 169.867188 138.34375 169.011719 139.492188 168.183594 C 139.777344 167.976562 140.066406 167.769531 140.355469 167.566406 C 140.644531 167.359375 140.929688 167.152344 141.222656 166.949219 L 142.09375 166.34375 L 142.972656 165.75 C 145.324219 164.164062 147.730469 162.660156 150.1875 161.238281 C 151.417969 160.53125 152.652344 159.828125 153.90625 159.164062 L 154.847656 158.664062 L 155.796875 158.175781 C 156.425781 157.84375 157.0625 157.53125 157.699219 157.214844 C 160.246094 155.953125 162.84375 154.789062 165.476562 153.707031 C 168.109375 152.625 170.78125 151.628906 173.484375 150.730469 C 173.820312 150.617188 174.15625 150.5 174.496094 150.394531 L 175.515625 150.070312 C 176.195312 149.851562 176.878906 149.648438 177.5625 149.445312 C 178.242188 149.238281 178.929688 149.050781 179.617188 148.859375 C 180.300781 148.660156 180.992188 148.484375 181.683594 148.304688 C 184.445312 147.59375 187.230469 146.96875 190.035156 146.449219 L 191.085938 146.253906 C 191.4375 146.191406 191.792969 146.136719 192.144531 146.074219 C 192.847656 145.957031 193.550781 145.839844 194.257812 145.738281 C 195.667969 145.523438 197.082031 145.339844 198.5 145.171875 C 199.210938 145.097656 199.917969 145.015625 200.628906 144.945312 L 202.761719 144.75 C 203.472656 144.695312 204.183594 144.652344 204.894531 144.601562 L 205.414062 144.566406 L 205.917969 144.527344 C 206.253906 144.5 206.597656 144.46875 206.9375 144.4375 C 209.675781 144.175781 212.421875 143.800781 215.140625 143.332031 C 216.5 143.097656 217.855469 142.835938 219.207031 142.546875 C 220.554688 142.261719 221.898438 141.953125 223.230469 141.609375 C 224.5625 141.261719 225.886719 140.894531 227.199219 140.488281 C 228.507812 140.082031 229.804688 139.640625 231.085938 139.167969 C 232.363281 138.691406 233.625 138.167969 234.859375 137.605469 C 236.09375 137.042969 237.304688 136.433594 238.472656 135.765625 C 239.640625 135.101562 240.773438 134.378906 241.851562 133.59375 C 242.921875 132.808594 243.941406 131.957031 244.878906 131.039062 L 244.925781 130.996094 C 245.574219 130.359375 246.617188 130.371094 247.253906 131.019531 C 247.816406 131.597656 247.871094 132.484375 247.417969 133.121094 C 246.769531 134.039062 246.121094 134.9375 245.46875 135.839844 C 244.816406 136.742188 244.160156 137.640625 243.5 138.535156 C 242.839844 139.429688 242.175781 140.324219 241.507812 141.210938 C 240.835938 142.101562 240.167969 142.988281 239.492188 143.871094 L 238.476562 145.195312 C 238.136719 145.636719 237.796875 146.078125 237.453125 146.515625 L 236.425781 147.828125 L 235.390625 149.136719 L 234.351562 150.441406 C 234.007812 150.878906 233.660156 151.3125 233.308594 151.742188 C 232.609375 152.609375 231.898438 153.464844 231.191406 154.324219 L 230.125 155.609375 C 229.769531 156.035156 229.410156 156.460938 229.046875 156.882812 C 228.332031 157.734375 227.601562 158.574219 226.871094 159.414062 C 226.136719 160.253906 225.40625 161.089844 224.65625 161.914062 C 223.914062 162.742188 223.15625 163.558594 222.402344 164.375 L 221.25 165.585938 L 220.671875 166.1875 L 220.085938 166.785156 L 219.503906 167.378906 L 218.910156 167.96875 C 218.511719 168.359375 218.121094 168.753906 217.714844 169.132812 L 217.109375 169.710938 C 216.90625 169.902344 216.707031 170.09375 216.5 170.277344 C 216.085938 170.652344 215.675781 171.03125 215.261719 171.398438 L 214 172.488281 L 212.699219 173.535156 L 213.875 172.355469 L 215.019531 171.148438 L 216.136719 169.921875 C 216.324219 169.71875 216.503906 169.507812 216.6875 169.300781 L 217.234375 168.675781 C 217.605469 168.265625 217.957031 167.839844 218.316406 167.417969 L 218.855469 166.789062 L 219.382812 166.148438 L 219.914062 165.511719 L 220.179688 165.191406 L 220.441406 164.871094 L 221.484375 163.578125 C 222.167969 162.710938 222.863281 161.851562 223.539062 160.976562 C 223.878906 160.539062 224.21875 160.105469 224.550781 159.664062 L 225.5625 158.347656 C 226.230469 157.464844 226.898438 156.585938 227.558594 155.695312 L 229.53125 153.03125 C 230.183594 152.136719 230.835938 151.246094 231.480469 150.34375 C 232.128906 149.449219 232.773438 148.550781 233.417969 147.652344 L 234.378906 146.300781 L 235.332031 144.945312 C 235.96875 144.039062 236.605469 143.136719 237.238281 142.226562 L 239.125 139.5 L 241 136.761719 L 242.859375 134.015625 C 243.476562 133.101562 244.09375 132.179688 244.691406 131.265625 L 247.230469 133.347656 C 246.195312 134.429688 245.078125 135.417969 243.910156 136.328125 C 242.734375 137.234375 241.511719 138.054688 240.257812 138.8125 C 239.941406 139.003906 239.625 139.183594 239.308594 139.367188 C 238.992188 139.542969 238.671875 139.726562 238.347656 139.898438 C 238.027344 140.066406 237.707031 140.242188 237.378906 140.402344 L 236.890625 140.648438 L 236.402344 140.886719 C 235.09375 141.523438 233.761719 142.097656 232.414062 142.625 C 229.722656 143.6875 226.976562 144.566406 224.203125 145.3125 C 222.816406 145.683594 221.421875 146.019531 220.023438 146.332031 C 218.625 146.636719 217.222656 146.917969 215.8125 147.167969 C 214.40625 147.421875 212.992188 147.640625 211.574219 147.835938 C 210.15625 148.03125 208.734375 148.199219 207.300781 148.332031 C 206.945312 148.363281 206.585938 148.394531 206.222656 148.425781 L 205.671875 148.464844 L 205.140625 148.5 L 203.066406 148.640625 L 201 148.816406 C 200.308594 148.882812 199.621094 148.957031 198.933594 149.027344 C 197.554688 149.179688 196.179688 149.34375 194.808594 149.539062 C 194.121094 149.628906 193.4375 149.738281 192.753906 149.84375 C 192.414062 149.898438 192.070312 149.949219 191.730469 150.003906 L 190.703125 150.179688 C 187.976562 150.652344 185.257812 151.207031 182.5625 151.847656 C 181.886719 152.011719 181.214844 152.167969 180.542969 152.34375 C 179.871094 152.515625 179.199219 152.683594 178.53125 152.871094 C 177.863281 153.054688 177.191406 153.234375 176.527344 153.429688 L 175.527344 153.71875 C 175.195312 153.8125 174.863281 153.921875 174.53125 154.019531 C 171.878906 154.828125 169.246094 155.714844 166.644531 156.683594 C 164.039062 157.652344 161.460938 158.695312 158.917969 159.824219 C 158.285156 160.109375 157.644531 160.386719 157.015625 160.679688 L 156.066406 161.117188 L 155.125 161.566406 C 153.867188 162.160156 152.621094 162.785156 151.378906 163.417969 C 150.140625 164.058594 148.910156 164.710938 147.6875 165.386719 C 147.074219 165.714844 146.472656 166.066406 145.863281 166.40625 L 144.503906 167.191406 L 144.054688 167.457031 C 142.851562 168.167969 141.65625 168.894531 140.476562 169.636719 C 139.292969 170.382812 138.125 171.148438 136.960938 171.925781 C 134.640625 173.488281 132.363281 175.117188 130.140625 176.828125 C 129.582031 177.253906 129.03125 177.6875 128.484375 178.125 C 127.933594 178.5625 127.390625 179.003906 126.847656 179.453125 C 125.769531 180.351562 124.703125 181.261719 123.675781 182.226562 " fill-opacity="1" fill-rule="nonzero"/></g></svg>