<svg xmlns="http://www.w3.org/2000/svg" xmlns:xlink="http://www.w3.org/1999/xlink" width="500" zoomAndPan="magnify" viewBox="0 0 375 374.999991" height="500" preserveAspectRatio="xMidYMid meet" version="1.0"><defs><clipPath id="1e335859f0"><path d="M 210 112.5 L 262.5 112.5 L 262.5 165 L 210 165 Z M 210 112.5 " clip-rule="nonzero"/></clipPath></defs><path fill="#d88480" d="M 172.367188 186.574219 L 116.914062 242.027344 C 112.492188 246.453125 112.492188 253.652344 116.914062 258.078125 C 121.34375 262.503906 128.542969 262.503906 132.96875 258.078125 L 188.421875 202.625 C 191.25 199.800781 194.019531 196.886719 196.726562 193.914062 L 181.082031 178.269531 C 178.109375 180.976562 175.195312 183.746094 172.367188 186.574219 Z M 172.367188 186.574219 " fill-opacity="1" fill-rule="nonzero"/><g clip-path="url(#1e335859f0)"><path fill="#d88480" d="M 262.238281 146.734375 C 261.929688 140.203125 259.917969 130.769531 252.070312 122.925781 C 244.222656 115.078125 234.789062 113.066406 228.257812 112.757812 C 222.71875 112.496094 217.675781 115.800781 215.695312 120.972656 C 214.308594 124.585938 213.183594 128.328125 212.347656 132.105469 C 210.941406 138.449219 210.335938 144.945312 210.53125 151.441406 C 211.265625 147.667969 212.28125 143.941406 213.5625 140.320312 C 215.230469 135.625 217.355469 131.070312 219.882812 126.777344 C 220.226562 126.199219 220.972656 126.003906 221.554688 126.347656 C 222.132812 126.6875 222.324219 127.433594 221.984375 128.015625 C 219.535156 132.171875 217.472656 136.585938 215.863281 141.136719 C 214.324219 145.476562 213.183594 149.980469 212.460938 154.527344 L 213.289062 155.359375 C 214.742188 151.234375 216.664062 147.292969 219.019531 143.625 C 221.117188 140.363281 223.5625 137.304688 226.289062 134.539062 C 226.761719 134.058594 227.53125 134.054688 228.011719 134.527344 C 228.492188 135 228.496094 135.773438 228.023438 136.25 C 225.414062 138.898438 223.074219 141.820312 221.070312 144.941406 C 218.605469 148.78125 216.640625 152.933594 215.214844 157.285156 L 215.601562 157.671875 L 231.628906 141.644531 C 232.101562 141.167969 232.875 141.167969 233.351562 141.644531 C 233.828125 142.121094 233.828125 142.890625 233.351562 143.367188 L 217.324219 159.394531 L 217.710938 159.777344 C 222.0625 158.351562 226.214844 156.390625 230.050781 153.925781 C 233.171875 151.917969 236.097656 149.582031 238.742188 146.972656 C 239.222656 146.5 239.992188 146.503906 240.464844 146.984375 C 240.9375 147.460938 240.933594 148.234375 240.453125 148.707031 C 237.6875 151.433594 234.632812 153.878906 231.371094 155.972656 C 227.699219 158.332031 223.761719 160.253906 219.632812 161.703125 L 220.464844 162.535156 C 225.015625 161.8125 229.515625 160.671875 233.859375 159.132812 C 238.410156 157.519531 242.824219 155.460938 246.980469 153.011719 C 247.558594 152.667969 248.304688 152.863281 248.648438 153.441406 C 248.988281 154.019531 248.796875 154.769531 248.21875 155.109375 C 243.925781 157.640625 239.367188 159.765625 234.671875 161.429688 C 231.054688 162.714844 227.324219 163.726562 223.550781 164.464844 C 230.050781 164.660156 236.546875 164.050781 242.890625 162.648438 C 246.664062 161.8125 250.410156 160.6875 254.023438 159.300781 C 259.195312 157.320312 262.496094 152.269531 262.238281 146.734375 Z M 262.238281 146.734375 " fill-opacity="1" fill-rule="nonzero"/></g><path fill="#d88480" d="M 216.515625 162.03125 L 209.296875 154.8125 L 192.058594 168.816406 C 188.953125 171.339844 185.894531 173.953125 182.890625 176.632812 L 198.359375 192.101562 C 201.042969 189.101562 203.65625 186.042969 206.179688 182.9375 L 220.183594 165.699219 L 216.519531 162.035156 C 216.519531 162.035156 216.519531 162.035156 216.515625 162.03125 Z M 216.515625 162.03125 " fill-opacity="1" fill-rule="nonzero"/></svg>