<svg xmlns="http://www.w3.org/2000/svg" xmlns:xlink="http://www.w3.org/1999/xlink" width="500" zoomAndPan="magnify" viewBox="0 0 375 374.999991" height="500" preserveAspectRatio="xMidYMid meet" version="1.0"><defs><clipPath id="dccdd643cf"><path d="M 148 184 L 227 184 L 227 262.5 L 148 262.5 Z M 148 184 " clip-rule="nonzero"/></clipPath><clipPath id="fc5da6f933"><path d="M 168 112.5 L 207 112.5 L 207 178 L 168 178 Z M 168 112.5 " clip-rule="nonzero"/></clipPath></defs><g clip-path="url(#dccdd643cf)"><path fill="#d88480" d="M 220.875 189.933594 L 212.984375 187.003906 C 209.371094 185.667969 203.253906 184.566406 199.402344 184.566406 L 175.601562 184.566406 C 171.75 184.566406 165.628906 185.667969 162.015625 187.003906 L 154.125 189.933594 C 150.515625 191.273438 148.171875 195.46875 148.925781 199.246094 L 160.199219 255.621094 C 160.953125 259.398438 164.730469 262.5 168.585938 262.5 L 206.417969 262.5 C 210.269531 262.5 214.046875 259.398438 214.804688 255.621094 L 226.078125 199.246094 C 226.828125 195.46875 224.492188 191.273438 220.875 189.933594 Z M 211.019531 216.523438 C 211.019531 218.449219 209.441406 220.03125 207.511719 220.03125 L 167.488281 220.03125 C 165.5625 220.03125 163.984375 218.449219 163.984375 216.523438 L 163.984375 205.132812 C 163.984375 203.199219 165.5625 201.621094 167.488281 201.621094 L 207.511719 201.621094 C 209.441406 201.621094 211.019531 203.210938 211.019531 205.132812 Z M 211.019531 216.523438 " fill-opacity="1" fill-rule="nonzero"/></g><g clip-path="url(#fc5da6f933)"><path fill="#d88480" d="M 199.398438 112.5 L 175.601562 112.5 L 168.585938 177.550781 L 206.414062 177.550781 Z M 199.398438 112.5 " fill-opacity="1" fill-rule="nonzero"/></g></svg>