<svg xmlns="http://www.w3.org/2000/svg" xmlns:xlink="http://www.w3.org/1999/xlink" width="500" zoomAndPan="magnify" viewBox="0 0 375 374.999991" height="500" preserveAspectRatio="xMidYMid meet" version="1.0"><defs><clipPath id="cf02c3bada"><path d="M 112.5 160 L 261 160 L 261 203 L 112.5 203 Z M 112.5 160 " clip-rule="nonzero"/></clipPath></defs><g clip-path="url(#cf02c3bada)"><path fill="#fcbdc0" d="M 112.613281 202.183594 C 112.613281 202.183594 172.617188 116.6875 258.503906 190.222656 C 258.503906 190.222656 262.425781 193.753906 259.878906 198.261719 C 256.664062 203.949219 248.894531 194.535156 248.894531 194.535156 C 248.894531 194.535156 189.285156 123.941406 112.617188 202.183594 Z M 112.613281 202.183594 " fill-opacity="1" fill-rule="nonzero"/></g><path fill="#fcbdc0" d="M 117.320312 201.988281 C 117.320312 201.988281 183.207031 129.238281 245.363281 199.242188 C 245.363281 199.242188 254.578125 210.613281 248.5 215.515625 C 242.421875 220.421875 239.285156 214.144531 237.714844 213.164062 C 236.148438 212.183594 235.164062 213.753906 233.988281 215.714844 C 232.8125 217.675781 176.535156 258.265625 118.097656 206.890625 C 118.097656 206.890625 181.4375 257.875 232.421875 210.222656 C 232.421875 210.222656 238.109375 203.949219 232.226562 196.695312 C 226.34375 189.4375 191.046875 143.941406 117.316406 201.988281 Z M 117.320312 201.988281 " fill-opacity="1" fill-rule="nonzero"/><path fill="#fcbdc0" d="M 203.09375 173.671875 C 208.246094 178.726562 211.441406 185.769531 211.441406 193.554688 C 211.441406 208.933594 198.976562 221.402344 183.597656 221.402344 C 168.21875 221.402344 155.75 208.933594 155.75 193.554688 C 155.75 186.066406 158.707031 179.269531 163.519531 174.265625 C 163.519531 174.265625 171.242188 171.003906 183.597656 171.003906 C 195.949219 171.003906 203.09375 173.671875 203.09375 173.671875 Z M 170.320312 192.40625 L 159.390625 191.394531 C 159.328125 192.109375 159.28125 192.828125 159.28125 193.558594 C 159.28125 197.382812 160.1875 200.988281 161.761719 204.207031 L 171.636719 199.425781 C 170.761719 197.652344 170.261719 195.667969 170.261719 193.558594 C 170.261719 193.167969 170.289062 192.785156 170.320312 192.40625 Z M 183.402344 183.554688 C 177.769531 183.554688 173.203125 188.121094 173.203125 193.75 C 173.203125 199.382812 177.769531 203.949219 183.402344 203.949219 C 189.03125 203.949219 193.597656 199.382812 193.597656 193.75 C 193.597656 188.121094 189.03125 183.554688 183.402344 183.554688 Z M 183.402344 183.554688 " fill-opacity="1" fill-rule="nonzero"/></svg>