<svg xmlns="http://www.w3.org/2000/svg" xmlns:xlink="http://www.w3.org/1999/xlink" width="500" zoomAndPan="magnify" viewBox="0 0 375 374.999991" height="500" preserveAspectRatio="xMidYMid meet" version="1.0"><defs><clipPath id="941acae488"><path d="M 168 112.5 L 184 112.5 L 184 135 L 168 135 Z M 168 112.5 " clip-rule="nonzero"/></clipPath><clipPath id="b01c7ad1cd"><path d="M 130.820312 141 L 136 141 L 136 149 L 130.820312 149 Z M 130.820312 141 " clip-rule="nonzero"/></clipPath><clipPath id="9b9899d1ec"><path d="M 192 173 L 237 173 L 237 262.5 L 192 262.5 Z M 192 173 " clip-rule="nonzero"/></clipPath><clipPath id="9dfa0703c4"><path d="M 239 178 L 244.070312 178 L 244.070312 186 L 239 186 Z M 239 178 " clip-rule="nonzero"/></clipPath></defs><g clip-path="url(#941acae488)"><path fill="#d88480" d="M 176.207031 112.5 L 177.359375 112.5 C 186.714844 115.695312 185.722656 131.316406 176.382812 134.066406 C 174.78125 134.226562 172.921875 133.628906 171.832031 132.371094 C 165.164062 126.875 168.730469 115.027344 176.207031 112.5 Z M 176.207031 112.5 " fill-opacity="1" fill-rule="nonzero"/></g><path fill="#d88480" d="M 161.011719 118.148438 C 166.601562 119.546875 165.070312 130.238281 159.425781 130.550781 C 154.21875 128.21875 156.011719 119.960938 161.011719 118.148438 Z M 161.011719 118.148438 " fill-opacity="1" fill-rule="nonzero"/><path fill="#d88480" d="M 149.460938 123.121094 C 153.714844 123.050781 154.050781 129.632812 151.355469 132.015625 C 150.644531 134.421875 146.179688 133.945312 146.605469 131.039062 C 144.933594 128.515625 147.253906 124.882812 149.460938 123.121094 Z M 149.460938 123.121094 " fill-opacity="1" fill-rule="nonzero"/><path fill="#d88480" d="M 139.925781 131.332031 C 144.988281 132.03125 142.875 141.042969 138.292969 140.957031 C 135.433594 138.484375 136.433594 132.800781 139.925781 131.332031 Z M 139.925781 131.332031 " fill-opacity="1" fill-rule="nonzero"/><path fill="#d88480" d="M 159.238281 135.824219 C 169.8125 134.113281 180.5625 142.523438 182.261719 152.890625 C 181.210938 162.765625 171.414062 169.464844 169.558594 179.015625 C 167.675781 189.617188 174.730469 198.15625 177.699219 207.679688 C 179.695312 212.691406 179.613281 220.390625 173.785156 222.910156 C 170.230469 226.488281 164.003906 225.441406 161.289062 221.207031 C 155.761719 213.433594 156.8125 203.757812 152.96875 195.285156 C 148.425781 184.578125 141.261719 174.871094 138.796875 163.351562 C 135.75 154.949219 140.84375 145.410156 148.265625 140.761719 C 151.671875 138.589844 155.332031 137.066406 159.238281 135.824219 Z M 159.238281 135.824219 " fill-opacity="1" fill-rule="nonzero"/><g clip-path="url(#b01c7ad1cd)"><path fill="#d88480" d="M 130.820312 143.8125 C 131.367188 142.605469 132.007812 140.773438 133.78125 141.574219 C 137.039062 143.175781 133.085938 151.40625 130.820312 146.582031 Z M 130.820312 143.8125 " fill-opacity="1" fill-rule="nonzero"/></g><path fill="#d88480" d="M 196.9375 150.351562 C 207.058594 150.171875 209.894531 166.6875 201.171875 171.09375 C 196.453125 172.382812 191.894531 167.644531 191.484375 163.132812 C 189.664062 158.90625 191.636719 151.664062 196.9375 150.351562 Z M 196.9375 150.351562 " fill-opacity="1" fill-rule="nonzero"/><path fill="#d88480" d="M 213.230469 155.648438 C 218.636719 155.957031 220.792969 166.996094 214.429688 167.867188 C 210.085938 166.0625 208.21875 157.648438 213.230469 155.648438 Z M 213.230469 155.648438 " fill-opacity="1" fill-rule="nonzero"/><path fill="#d88480" d="M 223.835938 160.820312 C 228.886719 160.488281 230.757812 169.964844 225.480469 171.296875 C 222.140625 169.269531 219.96875 163.390625 223.835938 160.820312 Z M 223.835938 160.820312 " fill-opacity="1" fill-rule="nonzero"/><path fill="#d88480" d="M 233.835938 168.742188 C 238.347656 168.394531 239.660156 176.089844 236.113281 178.335938 C 231.957031 177.90625 230.433594 171.066406 233.835938 168.742188 Z M 233.835938 168.742188 " fill-opacity="1" fill-rule="nonzero"/><g clip-path="url(#9b9899d1ec)"><path fill="#d88480" d="M 200.578125 176.980469 C 214.515625 166.648438 237.585938 179.558594 236.796875 196.742188 C 234.648438 210.59375 226.050781 222.199219 220.835938 234.96875 C 218.9375 241.203125 218.078125 247.671875 216.042969 253.867188 C 214.355469 257.753906 211.324219 262.074219 206.761719 262.5 L 206.28125 262.5 C 199.316406 261.429688 193.265625 253.847656 196.65625 246.804688 C 198.855469 237.300781 206.273438 229.25 205.191406 219.023438 C 205.417969 208.890625 196.042969 202.375 193.054688 193.359375 C 192.070312 187.074219 195.667969 180.742188 200.578125 176.980469 Z M 200.578125 176.980469 " fill-opacity="1" fill-rule="nonzero"/></g><g clip-path="url(#9dfa0703c4)"><path fill="#d88480" d="M 244.175781 184.277344 C 241.222656 188.085938 237.808594 180.207031 241.453125 178.785156 C 243.023438 178.882812 243.242188 180.417969 244.175781 181.265625 Z M 244.175781 184.277344 " fill-opacity="1" fill-rule="nonzero"/></g></svg>