<svg xmlns="http://www.w3.org/2000/svg" xmlns:xlink="http://www.w3.org/1999/xlink" width="500" zoomAndPan="magnify" viewBox="0 0 375 374.999991" height="500" preserveAspectRatio="xMidYMid meet" version="1.0"><defs><clipPath id="010f76c33e"><path d="M 112.5 127.59375 L 262.5 127.59375 L 262.5 247.59375 L 112.5 247.59375 Z M 112.5 127.59375 " clip-rule="nonzero"/></clipPath></defs><g clip-path="url(#010f76c33e)"><path fill="#fcbdc0" d="M 146.59375 189.164062 L 112.589844 210.585938 L 112.589844 163.703125 Z M 262.371094 136.96875 L 262.371094 140.335938 L 187.480469 196.429688 L 112.589844 140.335938 L 112.589844 136.96875 C 112.589844 131.800781 116.785156 127.605469 121.953125 127.605469 L 253.011719 127.605469 C 258.179688 127.605469 262.371094 131.800781 262.371094 136.96875 Z M 228.371094 189.164062 L 262.371094 163.703125 L 262.371094 210.585938 Z M 212.34375 201.148438 L 262.371094 232.828125 L 262.371094 238.070312 C 262.371094 243.238281 258.179688 247.429688 253.011719 247.429688 L 121.953125 247.429688 C 116.785156 247.429688 112.589844 243.238281 112.589844 238.070312 L 112.589844 232.828125 L 162.617188 201.148438 L 181.867188 215.601562 C 183.511719 216.875 185.535156 217.472656 187.480469 217.472656 C 189.429688 217.472656 191.453125 216.875 193.097656 215.601562 Z M 212.34375 201.148438 " fill-opacity="1" fill-rule="nonzero"/></g></svg>