<svg xmlns="http://www.w3.org/2000/svg" xmlns:xlink="http://www.w3.org/1999/xlink" width="500" zoomAndPan="magnify" viewBox="0 0 375 374.999991" height="500" preserveAspectRatio="xMidYMid meet" version="1.0"><defs><clipPath id="4692dfc3a2"><path d="M 114 112.5 L 261.816406 112.5 L 261.816406 261 L 114 261 Z M 114 112.5 " clip-rule="nonzero"/></clipPath></defs><g clip-path="url(#4692dfc3a2)"><path fill="#fcbdc0" d="M 205.742188 257.386719 C 193.460938 254.238281 185.367188 248.820312 176.765625 242.960938 C 158.261719 230.34375 145.761719 216.007812 138.003906 205.511719 C 131.292969 196.429688 122 183.597656 117.148438 164.617188 C 113.324219 149.675781 115.207031 142.460938 116.484375 138.910156 C 119.667969 130.0625 128.035156 119.128906 137.324219 119.652344 C 141.707031 119.902344 145.742188 124.046875 153.636719 132.339844 C 163.863281 143.082031 168.980469 148.457031 168.359375 154.089844 C 168.359375 154.089844 167.976562 157.570312 154.542969 171.53125 C 154.542969 171.53125 161.898438 185.59375 170.625 195.546875 C 184.601562 211.484375 204.832031 220.011719 204.832031 220.011719 C 204.832031 220.011719 212.863281 207.851562 221.332031 206.902344 C 226.015625 206.378906 229.742188 209.558594 237.003906 215.929688 C 248.652344 226.152344 256.195312 232.773438 255.125 240.851562 C 253.933594 249.855469 242.785156 254.96875 239.15625 256.632812 C 226.378906 262.5 213.703125 259.429688 205.742188 257.386719 Z M 197.363281 119.453125 C 198.925781 119.441406 200.488281 119.496094 202.042969 119.617188 C 202.621094 119.660156 203.199219 119.710938 203.777344 119.773438 C 204.035156 119.796875 204.292969 119.824219 204.550781 119.859375 C 204.898438 119.894531 206.199219 120.1875 204.945312 119.902344 C 206.308594 120.207031 207.722656 120.332031 209.097656 120.613281 C 212.453125 121.300781 215.757812 122.257812 218.957031 123.488281 C 219.410156 123.660156 219.855469 123.84375 220.308594 124.027344 C 221.09375 124.339844 219.613281 123.71875 220.402344 124.0625 C 220.628906 124.164062 220.859375 124.261719 221.085938 124.363281 C 222.015625 124.78125 222.941406 125.222656 223.851562 125.679688 C 225.695312 126.609375 227.488281 127.644531 229.222656 128.765625 C 230.175781 129.378906 231.105469 130.023438 232.023438 130.699219 C 232.179688 130.8125 232.335938 130.929688 232.484375 131.042969 C 232.566406 131.101562 233.332031 131.695312 232.714844 131.214844 C 233.261719 131.640625 233.800781 132.078125 234.332031 132.523438 C 236.070312 133.984375 237.730469 135.542969 239.292969 137.199219 C 240.0625 138.011719 240.808594 138.851562 241.53125 139.707031 C 241.828125 140.058594 242.113281 140.40625 242.398438 140.761719 C 242.566406 140.972656 242.738281 141.1875 242.90625 141.398438 C 242.367188 140.714844 243.089844 141.644531 243.179688 141.769531 C 244.363281 143.363281 245.464844 145.015625 246.480469 146.71875 C 247.476562 148.386719 248.386719 150.109375 249.214844 151.871094 C 249.382812 152.222656 249.546875 152.578125 249.699219 152.933594 C 249.796875 153.144531 249.890625 153.351562 249.980469 153.570312 C 250.011719 153.636719 250.039062 153.707031 250.074219 153.777344 C 250.21875 154.125 250.191406 154.058594 249.992188 153.589844 C 250.238281 153.886719 250.359375 154.484375 250.5 154.84375 C 250.660156 155.253906 250.816406 155.667969 250.964844 156.082031 C 252.050781 159.035156 252.910156 162.066406 253.550781 165.140625 C 253.859375 166.621094 254.050781 168.113281 254.320312 169.59375 C 254.328125 169.609375 254.199219 168.613281 254.257812 169.136719 C 254.277344 169.332031 254.304688 169.53125 254.332031 169.722656 C 254.371094 170.050781 254.40625 170.378906 254.445312 170.710938 C 254.503906 171.269531 254.554688 171.828125 254.601562 172.390625 C 254.714844 173.875 254.777344 175.371094 254.769531 176.863281 C 254.757812 178.65625 256.355469 180.375 258.199219 180.292969 C 260.066406 180.207031 261.613281 178.785156 261.628906 176.863281 C 261.699219 166.078125 258.816406 155.101562 253.746094 145.625 C 245.402344 130.035156 230.402344 118.730469 213.285156 114.53125 C 208.101562 113.261719 202.710938 112.554688 197.363281 112.597656 C 195.570312 112.613281 193.851562 114.164062 193.933594 116.027344 C 194.015625 117.871094 195.441406 119.46875 197.363281 119.453125 Z M 196.683594 136.894531 C 197.859375 136.871094 199.039062 136.894531 200.207031 136.972656 C 201.105469 137.03125 202.003906 137.121094 202.90625 137.226562 C 203.648438 137.3125 201.996094 137.089844 202.949219 137.230469 C 203.191406 137.261719 203.425781 137.300781 203.667969 137.335938 C 204.238281 137.429688 204.804688 137.53125 205.371094 137.644531 C 207.914062 138.152344 210.40625 138.863281 212.824219 139.789062 C 213.132812 139.90625 213.433594 140.03125 213.734375 140.148438 C 214.335938 140.390625 213.648438 140.144531 213.605469 140.089844 C 213.660156 140.152344 213.964844 140.246094 214.066406 140.289062 C 214.773438 140.601562 215.472656 140.933594 216.167969 141.285156 C 217.628906 142.027344 219.042969 142.851562 220.40625 143.757812 C 221.046875 144.183594 221.671875 144.617188 222.285156 145.078125 C 222.441406 145.195312 222.597656 145.308594 222.753906 145.429688 C 222.246094 145.039062 222.664062 145.363281 222.757812 145.441406 C 223.148438 145.761719 223.539062 146.078125 223.917969 146.402344 C 225.230469 147.53125 226.480469 148.742188 227.648438 150.023438 C 228.140625 150.5625 228.617188 151.113281 229.074219 151.679688 C 229.300781 151.953125 229.535156 152.226562 229.742188 152.511719 C 229.308594 151.925781 229.597656 152.324219 229.691406 152.449219 C 229.847656 152.660156 230.003906 152.867188 230.152344 153.078125 C 231.015625 154.273438 231.8125 155.511719 232.542969 156.792969 C 233.234375 158 233.863281 159.234375 234.433594 160.5 C 234.535156 160.730469 234.785156 161.085938 234.800781 161.332031 C 234.769531 160.859375 234.585938 160.8125 234.714844 161.140625 C 234.785156 161.3125 234.855469 161.484375 234.925781 161.65625 C 235.167969 162.265625 235.394531 162.878906 235.609375 163.5 C 236.347656 165.632812 236.933594 167.816406 237.363281 170.03125 C 237.472656 170.589844 237.574219 171.152344 237.660156 171.710938 C 237.703125 171.976562 237.734375 172.242188 237.777344 172.507812 C 237.859375 173.035156 237.71875 172.042969 237.71875 172.054688 C 237.730469 172.207031 237.757812 172.355469 237.777344 172.507812 C 237.886719 173.375 237.96875 174.242188 238.019531 175.109375 C 238.089844 176.175781 238.117188 177.246094 238.097656 178.320312 C 238.058594 180.113281 239.699219 181.828125 241.527344 181.75 C 243.417969 181.664062 244.917969 180.242188 244.957031 178.320312 C 245.113281 170.3125 243.039062 162.125 239.386719 155.035156 C 233.28125 143.167969 221.917969 134.527344 208.984375 131.417969 C 204.976562 130.457031 200.800781 129.9375 196.667969 130.03125 C 194.875 130.066406 193.152344 131.582031 193.238281 133.460938 C 193.335938 135.292969 194.761719 136.9375 196.683594 136.894531 Z M 196.910156 153.660156 C 197.730469 153.675781 198.546875 153.730469 199.359375 153.816406 C 199.515625 153.832031 199.671875 153.855469 199.828125 153.871094 C 200.363281 153.925781 199.414062 153.816406 199.414062 153.8125 C 199.707031 153.863281 200.003906 153.898438 200.296875 153.949219 C 201.019531 154.074219 201.734375 154.226562 202.445312 154.402344 C 203.175781 154.582031 203.890625 154.789062 204.601562 155.023438 C 204.984375 155.144531 205.359375 155.28125 205.738281 155.421875 C 205.96875 155.507812 206.199219 155.605469 206.433594 155.691406 C 207.09375 155.949219 205.839844 155.40625 206.550781 155.742188 C 208.320312 156.585938 210.023438 157.515625 211.613281 158.671875 C 211.589844 158.65625 212.367188 159.253906 211.988281 158.953125 C 211.605469 158.648438 212.394531 159.289062 212.359375 159.265625 C 212.742188 159.582031 213.113281 159.914062 213.476562 160.25 C 214.21875 160.941406 214.925781 161.671875 215.582031 162.441406 C 215.695312 162.578125 216.59375 163.671875 216.042969 162.976562 C 216.308594 163.308594 216.554688 163.660156 216.796875 164.011719 C 217.308594 164.753906 217.789062 165.519531 218.230469 166.304688 C 218.609375 166.976562 218.957031 167.671875 219.28125 168.371094 C 219.34375 168.507812 219.40625 168.648438 219.464844 168.78125 C 219.792969 169.496094 219.179688 168.050781 219.457031 168.769531 C 219.613281 169.167969 219.769531 169.5625 219.910156 169.960938 C 220.359375 171.214844 220.730469 172.503906 221.007812 173.804688 C 221.132812 174.382812 221.246094 174.957031 221.335938 175.539062 C 221.359375 175.683594 221.382812 175.824219 221.402344 175.96875 C 221.503906 176.566406 221.289062 175.023438 221.355469 175.605469 C 221.382812 175.851562 221.414062 176.101562 221.441406 176.347656 C 221.503906 177 221.546875 177.65625 221.5625 178.3125 C 221.605469 180.105469 223.109375 181.828125 224.996094 181.742188 C 226.8125 181.664062 228.472656 180.234375 228.425781 178.3125 C 228.296875 173.242188 226.921875 168.167969 224.597656 163.671875 C 220.691406 156.132812 213.652344 150.519531 205.539062 148.125 C 202.753906 147.300781 199.808594 146.851562 196.90625 146.789062 C 195.113281 146.75 193.394531 148.394531 193.476562 150.21875 C 193.566406 152.125 194.988281 153.621094 196.910156 153.660156 Z M 196.910156 153.660156 " fill-opacity="1" fill-rule="nonzero"/></g></svg>